<?xml version="1.0" encoding="utf-8"?>
<!-- Svg Vector Icons : http://www.onlinewebfonts.com/icon -->
<!DOCTYPE svg PUBLIC "-//W3C//DTD SVG 1.1//EN" "http://www.w3.org/Graphics/SVG/1.1/DTD/svg11.dtd">
<svg version="1.1" xmlns="http://www.w3.org/2000/svg" xmlns:xlink="http://www.w3.org/1999/xlink" x="0px" y="0px" viewBox="0 0 1000 1000" enable-background="new 0 0 1000 1000" xml:space="preserve">
<metadata> Svg Vector Icons : http://www.onlinewebfonts.com/icon </metadata>
<g><path d="M75.3,236.1h849.3c-1.4,2.4,65.3-17.1,65.3-75.4c0-58.3-34.6-75.4-77.4-75.4H87.4c-42.7,0-77.4,17.1-77.4,75.4C10,219,80.9,236.1,75.3,236.1z M912.6,424.5H87.4c-42.7,0-77.4,17.1-77.4,75.4c0,58.3,70.9,75.4,65.3,75.4h849.3c-1.4,2.4,65.3-17.1,65.3-75.4C990,441.6,955.4,424.5,912.6,424.5z M912.6,763.7H87.4c-42.7,0-77.4,17.1-77.4,75.4c0,58.3,70.9,75.4,65.3,75.4h849.3c-1.4,2.4,65.3-17.1,65.3-75.4C990,780.8,955.4,763.7,912.6,763.7z"/></g>
</svg>