<?xml version="1.0" encoding="utf-8"?>
<!-- Svg Vector Icons : http://www.onlinewebfonts.com/icon -->
<!DOCTYPE svg PUBLIC "-//W3C//DTD SVG 1.1//EN" "http://www.w3.org/Graphics/SVG/1.1/DTD/svg11.dtd">
<svg version="1.1" xmlns="http://www.w3.org/2000/svg" xmlns:xlink="http://www.w3.org/1999/xlink" x="0px" y="0px" viewBox="0 0 1000 1000" enable-background="new 0 0 1000 1000" xml:space="preserve">
<metadata> Svg Vector Icons : http://www.onlinewebfonts.com/icon </metadata>
<g><path d="M500,10C232.7,10,10,232.7,10,500c0,267.3,222.7,490,490,490c267.3,0,490-222.7,490-490C990,232.7,767.3,10,500,10z M500,900.9C277.3,900.9,99.1,722.7,99.1,500S277.3,99.1,500,99.1c222.7,0,400.9,178.2,400.9,400.9S722.7,900.9,500,900.9z"/><path d="M562.4,500l124.7-124.7c17.8-17.8,17.8-44.5,0-62.4c-17.8-17.8-44.5-17.8-62.4,0L500,437.6L375.3,312.9c-17.8-17.8-44.5-17.8-62.4,0c-17.8,17.8-17.8,44.5,0,62.4L437.6,500L312.9,624.7c-17.8,17.8-17.8,44.5,0,62.4c17.8,17.8,44.5,17.8,62.4,0L500,562.4l124.7,124.7c17.8,17.8,44.5,17.8,62.4,0c17.8-17.8,17.8-44.5,0-62.4L562.4,500z"/></g>
</svg>