<?xml version="1.0" encoding="utf-8"?>
<!-- Svg Vector Icons : http://www.onlinewebfonts.com/icon -->
<!DOCTYPE svg PUBLIC "-//W3C//DTD SVG 1.1//EN" "http://www.w3.org/Graphics/SVG/1.1/DTD/svg11.dtd">
<svg version="1.1" xmlns="http://www.w3.org/2000/svg" xmlns:xlink="http://www.w3.org/1999/xlink" x="0px" y="0px" viewBox="0 0 1000 1000" enable-background="new 0 0 1000 1000" xml:space="preserve">
<metadata> Svg Vector Icons : http://www.onlinewebfonts.com/icon </metadata>
<g><path d="M418.2,953.1c-23.8-23.8-36.9-55.5-36.9-89.3v-245l-245,0c-33.7,0-65.4-13.1-89.3-37C23.1,558,10,526.3,10,492.6c0-33.7,13.1-65.4,36.9-89.3c23.8-23.8,55.5-37,89.3-36.9l245,0l0-230.2c0-33.7,13.1-65.4,36.9-89.3C442,23.1,473.7,10,507.4,10c33.7,0,65.4,13.1,89.3,37c23.8,23.8,37,55.5,36.9,89.3l0,230.2h230.2c33.7,0,65.4,13.1,89.3,37c23.8,23.8,37,55.6,36.9,89.2c0,33.7-13.1,65.4-36.9,89.3c-23.8,23.8-55.6,37-89.3,36.9l-230.2,0l0,245c0,33.7-13.1,65.4-36.9,89.3c-23.8,23.8-55.5,37-89.3,36.9C473.7,990,442,976.9,418.2,953.1z M431.9,568.1c5.4,5.4,8.7,12.8,8.7,21l0,274.7c0,17.9,6.9,34.6,19.6,47.3c12.6,12.6,29.4,19.6,47.2,19.6c17.9,0,34.6-7,47.2-19.6c12.6-12.6,19.6-29.4,19.6-47.2l0-274.7c0-16.4,13.3-29.7,29.7-29.7l259.8,0c17.9,0,34.6-6.9,47.2-19.6c12.6-12.6,19.6-29.4,19.6-47.3c0-17.8-7-34.6-19.6-47.2c-12.6-12.6-29.4-19.6-47.2-19.5l-259.9,0c-16.4,0-29.7-13.3-29.7-29.7l0-259.9c0-17.8-6.9-34.6-19.5-47.2c-12.6-12.6-29.4-19.6-47.3-19.6c-17.9,0-34.6,6.9-47.3,19.6c-12.6,12.6-19.5,29.4-19.6,47.2v259.9c0,16.4-13.3,29.7-29.7,29.7l-274.7,0c-17.8,0-34.6,6.9-47.3,19.6c-12.6,12.6-19.5,29.4-19.6,47.2c0,17.9,7,34.6,19.6,47.2c12.6,12.6,29.4,19.6,47.3,19.6l274.7,0C419.1,559.4,426.5,562.7,431.9,568.1z"/></g>
</svg>