<?xml version="1.0" standalone="no"?>
<!DOCTYPE svg PUBLIC "-//W3C//DTD SVG 20010904//EN"
 "http://www.w3.org/TR/2001/REC-SVG-20010904/DTD/svg10.dtd">
<svg version="1.0" xmlns="http://www.w3.org/2000/svg"
 width="688.000000pt" height="702.000000pt" viewBox="0 0 688.000000 702.000000"
 preserveAspectRatio="xMidYMid meet">

<g transform="translate(0.000000,702.000000) scale(0.100000,-0.100000)"
fill="#000000" stroke="none">
<path d="M1473 6700 c-83 -50 -82 -184 1 -227 42 -23 126 -22 160 0 84 55 86
175 3 225 -45 28 -120 29 -164 2z"/>
<path d="M2025 6710 c-71 -29 -105 -126 -66 -187 30 -48 66 -67 125 -67 92 0
146 49 146 131 0 50 -18 82 -59 110 -35 24 -105 30 -146 13z"/>
<path d="M2543 6701 c-45 -29 -65 -63 -65 -116 0 -84 51 -130 143 -130 68 0
104 22 133 79 24 49 15 97 -28 144 -30 32 -39 36 -92 39 -46 3 -66 0 -91 -16z"/>
<path d="M3073 6700 c-83 -50 -82 -184 1 -227 42 -23 126 -22 160 0 84 55 86
175 3 225 -45 28 -120 29 -164 2z"/>
<path d="M955 6690 c-51 -25 -75 -65 -75 -124 0 -39 6 -52 33 -83 29 -31 41
-37 88 -40 66 -5 113 16 146 66 28 42 29 86 3 129 -42 69 -120 90 -195 52z"/>
<path d="M3604 6620 c-73 -29 -99 -139 -48 -200 36 -43 74 -60 132 -60 58 0
91 21 117 76 51 108 -84 232 -201 184z"/>
<path d="M515 6442 c-70 -45 -100 -103 -85 -167 17 -74 93 -119 163 -96 45 15
104 80 112 123 8 43 -17 106 -52 132 -38 28 -101 31 -138 8z"/>
<path d="M3986 6250 c-83 -25 -118 -117 -76 -199 30 -60 63 -81 128 -81 50 0
58 3 88 35 48 51 53 95 20 162 -21 43 -35 58 -69 73 -47 22 -50 22 -91 10z"/>
<path d="M299 5957 c-119 -79 -72 -267 67 -267 79 0 132 60 133 150 2 106
-114 175 -200 117z"/>
<path d="M4024 5710 c-39 -25 -58 -69 -57 -132 1 -55 20 -91 66 -118 90 -55
197 16 197 130 0 111 -115 178 -206 120z"/>
<path d="M326 5440 c-107 -33 -131 -187 -40 -259 40 -32 123 -29 163 5 83 69
54 226 -47 254 -42 11 -37 11 -76 0z"/>
<path d="M3903 4956 c-92 -30 -182 -101 -240 -187 l-24 -37 -51 34 c-186 126
-433 60 -570 -151 l-39 -60 -87 3 c-71 3 -98 0 -147 -19 -74 -27 -128 -63
-180 -120 -88 -95 -119 -181 -113 -304 l4 -82 -52 -27 c-65 -34 -153 -125
-187 -193 -36 -71 -51 -165 -38 -237 19 -104 58 -158 245 -345 l174 -174 -53
-52 c-65 -66 -85 -119 -92 -245 -10 -179 48 -313 206 -471 287 -288 796 -471
1268 -457 232 8 390 50 538 145 75 49 391 354 527 508 99 113 165 242 205 400
25 100 27 126 27 290 0 157 -4 196 -27 304 -15 68 -41 167 -59 220 -40 121
-147 333 -218 431 -233 322 -621 744 -741 806 -45 23 -69 28 -144 31 -57 2
-105 -2 -132 -11z m155 -260 c33 -17 266 -255 383 -391 327 -380 441 -589 500
-915 26 -144 22 -353 -9 -466 -42 -155 -72 -195 -346 -470 -221 -222 -259
-255 -317 -283 -129 -60 -272 -81 -479 -69 -306 17 -637 131 -855 296 -97 73
-184 177 -204 241 -13 47 -15 158 -1 166 25 15 193 -93 325 -211 95 -84 112
-94 160 -94 91 0 148 76 124 166 -9 33 -80 109 -455 484 -417 418 -444 448
-444 481 0 21 11 53 29 80 42 67 118 97 174 68 12 -6 104 -92 203 -191 174
-173 183 -180 228 -185 78 -9 135 30 149 102 11 56 -14 92 -173 253 -333 337
-332 336 -332 382 1 83 99 171 172 155 22 -5 103 -78 293 -267 144 -143 273
-269 286 -279 16 -13 40 -19 74 -19 44 0 53 4 88 39 35 35 39 44 39 91 l0 52
-219 223 c-234 237 -245 253 -218 316 29 70 122 131 173 113 11 -4 132 -118
269 -255 213 -211 256 -248 287 -254 21 -4 49 -4 62 -1 38 9 83 53 96 91 21
64 7 91 -126 225 -71 74 -125 137 -129 153 -18 72 72 185 148 187 10 0 30 -6
45 -14z"/>
<path d="M293 4890 c-47 -28 -66 -72 -61 -137 4 -46 10 -60 42 -91 33 -34 41
-37 92 -37 51 0 58 3 89 37 113 123 -22 314 -162 228z"/>
<path d="M305 4365 c-45 -23 -68 -62 -73 -120 -7 -90 48 -155 132 -155 74 0
136 67 136 146 0 101 -110 174 -195 129z"/>
<path d="M5253 4306 c-69 -31 -94 -129 -51 -192 38 -56 49 -58 353 -64 300 -7
330 -12 440 -67 158 -80 284 -229 338 -398 l22 -70 0 -1195 0 -1195 -22 -70
c-64 -201 -237 -374 -438 -438 l-70 -22 -1195 0 -1195 0 -70 22 c-219 70 -390
250 -445 471 -17 67 -20 113 -20 372 0 162 -4 310 -10 329 -29 101 -151 128
-226 50 l-29 -30 0 -347 c0 -332 1 -351 23 -432 93 -341 322 -575 664 -677
l93 -28 1215 0 1215 0 80 23 c349 103 574 328 676 677 l24 80 0 1215 0 1215
-23 80 c-98 339 -324 570 -657 671 -88 27 -98 28 -375 31 -233 3 -291 1 -317
-11z"/>
<path d="M310 3832 c-96 -48 -109 -184 -24 -251 40 -32 123 -29 163 5 79 66
58 211 -35 250 -44 18 -62 18 -104 -4z"/>
<path d="M445 3326 c-44 -20 -66 -49 -72 -95 -7 -54 2 -84 38 -126 77 -87 214
-52 235 60 8 42 -27 119 -67 148 -34 24 -96 31 -134 13z"/>
<path d="M849 3006 c-46 -27 -65 -72 -61 -143 5 -68 120 -128 196 -103 44 14
83 59 92 105 7 42 -19 100 -58 129 -36 26 -132 32 -169 12z"/>
<path d="M1404 2980 c-52 -16 -77 -53 -82 -119 -4 -56 -3 -61 31 -97 35 -38
37 -39 107 -39 70 0 72 1 105 37 44 47 53 95 29 144 -11 21 -30 46 -44 56 -30
22 -104 31 -146 18z"/>
<path d="M1935 2975 c-22 -8 -41 -15 -42 -15 -1 0 -11 -15 -22 -34 -40 -65
-17 -157 48 -191 40 -20 109 -19 151 3 103 55 84 211 -29 242 -46 13 -58 12
-106 -5z"/>
</g>
</svg>
