<?xml version="1.0" encoding="utf-8"?>
<!-- Svg Vector Icons : http://www.onlinewebfonts.com/icon -->
<!DOCTYPE svg PUBLIC "-//W3C//DTD SVG 1.1//EN" "http://www.w3.org/Graphics/SVG/1.1/DTD/svg11.dtd">
<svg version="1.1" xmlns="http://www.w3.org/2000/svg" xmlns:xlink="http://www.w3.org/1999/xlink" x="0px" y="0px" viewBox="0 0 1000 1000" enable-background="new 0 0 1000 1000" xml:space="preserve">
<metadata> Svg Vector Icons : http://www.onlinewebfonts.com/icon </metadata>
<g><path d="M500,990c-66.1,0-130.3-13-190.7-38.5c-58.4-24.7-110.8-60-155.7-105s-80.3-97.4-105-155.7C23,630.3,10,566.1,10,500c0-66.1,13-130.3,38.5-190.7c24.7-58.4,60-110.8,105-155.7c45-45,97.4-80.3,155.7-105C369.7,23,433.9,10,500,10c66.1,0,130.3,13,190.7,38.5c58.3,24.7,110.8,60,155.7,105c45,45,80.3,97.4,105,155.7C977,369.7,990,433.9,990,500c0,66.1-13,130.3-38.5,190.7c-24.7,58.4-60,110.8-105,155.7c-45,45-97.4,80.3-155.7,105C630.3,977,566.1,990,500,990z M500,80.3C268.6,80.3,80.3,268.6,80.3,500c0,231.4,188.3,419.7,419.7,419.7c231.4,0,419.7-188.3,419.7-419.7C919.7,268.6,731.4,80.3,500,80.3z"/><path d="M352.3,374.1c-27.4,0.4-47.1-26.5-38.4-52.5c2.3-6.9,5-13.7,8.1-20.1c10.3-21.8,23.9-40.4,41-55.9c17-15.5,37.1-27.5,60.1-36.1c23-8.6,48.2-13.1,75.4-13.4c28.9-0.4,55.3,3.4,79.4,11.4c24,8,44.8,19.2,62.2,33.7c17.4,14.5,31,31.8,40.8,51.8c9.8,20.1,14.8,42.1,15.1,66.2c0.4,27.3-5.5,52.5-17.5,75.7c-12.3,23.7-35.1,49.8-68.4,78.3c-33.9,28.5-54.4,51.3-61.7,68.2c-5.1,11.5-8.4,28.1-9.8,49.7c-1.2,19.1-16.8,34.1-36,34.3l0,0c-21.2,0.3-38.2-17.5-36.9-38.6c1.9-31.7,7-56.3,15.3-73.8c11.7-24.2,33.3-50,64.8-77.5c16.4-14.1,29.3-26.3,38.6-36.4c9.4-10.2,16.4-19.3,21.1-27.4c4.7-8.1,7.6-15.7,8.7-22.8c1.1-7.1,1.6-14.9,1.5-23.5c-0.2-15.8-3.2-30.3-9-43.6c-5.8-13.3-13.8-24.8-23.9-34.4c-10.2-9.6-22.3-17.1-36.4-22.4c-14.1-5.3-29.6-7.8-46.4-7.6c-57.6,0.8-94.2,29.8-109.8,87.2C385.6,361.9,370.2,373.9,352.3,374.1L352.3,374.1z M500.8,819L500.8,819c-25.7,0-46.5-20.8-46.5-46.5l0,0c0-25.7,20.8-46.5,46.5-46.5l0,0c25.7,0,46.5,20.8,46.5,46.5l0,0C547.3,798.2,526.5,819,500.8,819z"/></g>
</svg>