<?xml version="1.0" standalone="no"?>
<!DOCTYPE svg PUBLIC "-//W3C//DTD SVG 20010904//EN"
 "http://www.w3.org/TR/2001/REC-SVG-20010904/DTD/svg10.dtd">
<svg version="1.0" xmlns="http://www.w3.org/2000/svg"
 width="900.000000pt" height="980.000000pt" viewBox="0 0 900.000000 980.000000"
 preserveAspectRatio="xMidYMid meet">

<g transform="translate(0.000000,980.000000) scale(0.100000,-0.100000)"
fill="#000000" stroke="none">
<path d="M1390 9793 c-14 -2 -40 -6 -58 -9 -18 -3 -49 -19 -69 -37 -70 -62
-68 -39 -71 -671 l-3 -569 48 -50 c87 -90 165 -106 258 -54 49 28 80 73 94
138 6 27 14 162 18 299 l6 248 296 -288 c442 -431 454 -440 533 -421 61 14
123 53 149 94 16 26 19 45 17 103 -3 65 -6 75 -45 126 -23 30 -183 198 -356
374 l-314 319 296 5 c318 5 327 7 378 62 79 84 67 192 -32 291 l-48 47 -536
-1 c-295 -1 -547 -3 -561 -6z"/>
<path d="M4748 9752 c-52 -55 -68 -82 -79 -132 -13 -55 8 -114 58 -170 l45
-50 316 0 315 0 -336 -339 c-185 -187 -350 -361 -367 -387 -22 -36 -30 -60
-30 -93 1 -122 115 -226 226 -205 55 10 175 118 605 542 l177 174 3 -273 4
-274 28 -58 c32 -64 82 -101 153 -113 80 -12 173 42 195 114 17 58 31 705 22
969 -8 212 -11 235 -30 260 -55 75 -124 83 -784 83 l-476 0 -45 -48z"/>
<path d="M3525 8720 c-84 -11 -215 -56 -283 -97 -165 -100 -257 -203 -360
-408 l-40 -81 -7 -1772 -8 -1773 -291 289 c-160 158 -323 313 -361 344 -90 72
-193 121 -312 149 -124 29 -320 24 -428 -11 -146 -46 -271 -125 -374 -236
-155 -166 -200 -306 -188 -584 10 -200 41 -294 163 -485 155 -241 335 -594
627 -1225 686 -1482 965 -1960 1391 -2386 211 -210 373 -321 591 -402 l80 -30
1283 -7 1282 -7 183 95 c397 206 638 377 903 641 226 226 379 433 510 691 116
231 192 456 214 640 27 231 37 2659 11 2778 -14 64 -51 155 -92 225 -44 73
-188 217 -261 260 -166 98 -318 138 -492 129 -126 -6 -194 -22 -308 -72 -44
-20 -83 -33 -87 -31 -4 3 -29 42 -55 86 -117 202 -325 357 -554 411 -157 38
-391 11 -533 -62 -89 -45 -85 -45 -120 24 -128 255 -370 425 -648 457 -156 18
-292 -4 -458 -71 -18 -7 -34 -11 -37 -8 -3 2 -8 443 -12 979 l-7 975 -53 106
c-139 272 -361 433 -649 468 -100 12 -132 12 -220 1z m270 -431 c75 -28 153
-94 208 -176 l46 -68 6 -1320 7 -1320 30 -31 c16 -18 52 -44 80 -59 62 -34
117 -31 185 11 58 36 88 90 108 199 20 106 55 174 118 231 205 185 527 131
646 -110 45 -91 51 -141 51 -400 l0 -232 53 -51 c108 -105 176 -111 273 -21
58 53 64 66 81 162 24 138 111 264 218 316 91 44 276 42 371 -5 66 -32 158
-129 192 -202 26 -57 26 -61 32 -340 l5 -282 39 -40 c51 -52 92 -71 153 -71
131 0 190 60 212 216 13 89 53 167 120 235 79 78 153 111 261 117 165 8 287
-59 397 -218 l30 -45 7 -1005 c8 -1171 1 -1497 -38 -1685 -62 -296 -195 -580
-399 -849 -209 -275 -612 -593 -997 -786 l-117 -59 -1189 6 -1189 6 -80 40
c-44 21 -110 59 -146 83 -242 160 -539 526 -809 999 -116 204 -486 943 -660
1320 -321 697 -532 1118 -674 1348 -140 227 -175 331 -155 459 26 159 168 294
347 329 113 21 186 -8 327 -131 33 -29 251 -240 485 -469 234 -229 449 -436
478 -459 50 -39 58 -42 115 -42 69 0 129 23 165 63 l23 25 10 828 c5 456 14
1353 19 1994 6 660 14 1192 20 1227 11 69 40 122 96 177 44 43 140 92 204 106
63 13 170 4 235 -21z"/>
<path d="M1311 7938 c-71 -38 -101 -83 -112 -169 -5 -41 -10 -281 -10 -534 0
-591 5 -626 108 -676 l48 -24 530 1 c556 0 609 4 666 45 45 31 73 94 73 159
-1 62 -12 90 -57 138 -45 47 -100 59 -298 66 -96 4 -211 9 -257 12 l-83 6 293
296 c329 334 380 391 398 446 26 82 -13 173 -97 227 -58 36 -124 39 -184 9
-22 -12 -184 -164 -379 -357 l-340 -336 0 144 c0 143 -6 278 -16 374 -15 150
-160 239 -283 173z"/>
<path d="M4785 7941 c-74 -34 -115 -102 -115 -189 0 -37 7 -60 31 -98 18 -27
178 -196 356 -375 l324 -326 -263 -6 c-289 -5 -342 -14 -390 -64 -88 -91 -73
-254 28 -310 68 -38 186 -45 694 -41 403 4 472 7 517 21 76 25 99 59 109 154
12 113 9 897 -4 1038 -13 136 -23 157 -92 193 -83 42 -164 26 -244 -49 l-46
-42 0 -106 c0 -58 -3 -197 -7 -309 l-6 -203 -311 309 c-415 413 -426 422 -495
422 -25 0 -64 -9 -86 -19z"/>
</g>
</svg>
